<?xml version="1.0" encoding="utf-8"?><svg xml:space="preserve" viewBox="0 0 100 100" y="0" x="0" xmlns="http://www.w3.org/2000/svg" id="圖層_1" version="1.1" width="128px" height="128px" xmlns:xlink="http://www.w3.org/1999/xlink" style="width:100%;height:100%;background-size:initial;background-repeat-y:initial;background-repeat-x:initial;background-position-y:initial;background-position-x:initial;background-origin:initial;background-image:initial;background-color:rgb(255, 255, 255);background-clip:initial;background-attachment:initial;animation-play-state:paused" ><g class="ldl-scale" style="transform-origin:50% 50%;transform:scale(0.8);animation-play-state:paused" ><path fill="#a0c8d7" clip-rule="evenodd" fill-rule="evenodd" d="M67 66.1c0 16.1-7.4 23.2-16.4 23.2s-16.4-7.1-16.4-23.2 16.4-35.8 16.4-35.8S67 50.1 67 66.1z" style="fill:rgb(160, 200, 215);animation-play-state:paused" ></path>
<path fill="#a0c8d7" clip-rule="evenodd" fill-rule="evenodd" d="M90 34.5C90 45.2 85.2 50 79.2 50c-6 0-10.8-4.7-10.8-15.4s10.8-23.8 10.8-23.8S90 23.8 90 34.5z" style="fill:rgb(160, 200, 215);animation-play-state:paused" ></path>
<path fill="#a0c8d7" clip-rule="evenodd" fill-rule="evenodd" d="M27.8 52.8c0 9.9-4 14.3-8.9 14.3S10 62.8 10 52.8s8.9-22.1 8.9-22.1 8.9 12.2 8.9 22.1z" style="fill:rgb(160, 200, 215);animation-play-state:paused" ></path>
<metadata xmlns:d="https://loading.io/stock/" style="animation-play-state:paused" ><d:name style="animation-play-state:paused" >water</d:name>
<d:tags style="animation-play-state:paused" >rain,precipitation,cold,wet,moist,water,weather</d:tags>
<d:license style="animation-play-state:paused" >free</d:license>
<d:slug style="animation-play-state:paused" >soobgu</d:slug></metadata></g><!-- generated by https://loading.io/ --></svg>